<?xml version="1.0" encoding="UTF-8"?>
<svg width="32" height="32" viewBox="0 0 32 32" xmlns="http://www.w3.org/2000/svg">
    <!-- Flower Center -->
    <circle cx="16" cy="16" r="6" fill="#ff4081"/>
    
    <!-- Petals -->
    <path d="M16 4c-2.2 0-4 1.8-4 4s1.8 4 4 4 4-1.8 4-4-1.8-4-4-4z" fill="#f8bbd0"/>
    <path d="M16 20c-2.2 0-4 1.8-4 4s1.8 4 4 4 4-1.8 4-4-1.8-4-4-4z" fill="#f8bbd0"/>
    <path d="M4 16c0-2.2 1.8-4 4-4s4 1.8 4 4-1.8 4-4 4-4-1.8-4-4z" fill="#f8bbd0"/>
    <path d="M20 16c0-2.2 1.8-4 4-4s4 1.8 4 4-1.8 4-4 4-4-1.8-4-4z" fill="#f8bbd0"/>
    
    <!-- Sparkle -->
    <path d="M16 2l1 2-1 2-1-2z" fill="#fff"/>
    <path d="M16 26l1 2-1 2-1-2z" fill="#fff"/>
    <path d="M2 16l2 1-2 1-2-1z" fill="#fff"/>
    <path d="M26 16l2 1-2 1-2-1z" fill="#fff"/>
</svg> 